<?xml version="1.0"?><svg width="298.392" height="254.325" xmlns="http://www.w3.org/2000/svg">

 <metadata id="metadata3">faucettapfaucetplumbingOpen Clip Art LibraryJohn Olsenimage/svg+xmlen</metadata>
 <g>
  <title>Layer 1</title>
  <g id="layer2">
   <g transform="matrix(0.9395262,0,0,0.9395262,12.963577,4.0065059)" id="g3171">
    <path fill="#ffffff" fill-rule="evenodd" stroke="#000000" stroke-width="2.910329" stroke-miterlimit="4" id="path3375" d="m21.643459,140.066406l-0.75753,61.738342l63.253391,6.438965l0,-72.343689l-62.495861,4.166382z"/>
    <rect fill="#ffffff" stroke="#000000" stroke-width="2.910329" stroke-miterlimit="4" stroke-dashoffset="0" ry="0.053213" rx="74.048828" y="38.993095" x="140.76035" height="35.620823" width="23.033014" id="rect3377"/>
    <g fill="#ffffff" stroke-width="2.73433" stroke-miterlimit="4" id="g3379">
     <path fill="#ffffff" fill-rule="evenodd" stroke="#000000" stroke-width="2.910329" stroke-miterlimit="4" d="m84.13932,135.636703c3.866226,0.256943 5.606834,4.53894 9.279694,5.870819c3.550331,1.011826 7.193619,0.662491 10.794739,0.378769c1.204903,-0.635651 8.018021,-5.715347 8.397774,-6.484924c3.047943,-2.533356 7.16864,-8.862251 7.1315,-12.453232l0.757523,-19.88504c0.038757,-1.017159 -4.130508,-4.224808 -4.793945,-4.996788c-0.807182,-0.93924 1.058197,-9.991096 -0.49527,-9.816971c-1.75396,-0.67765 -2.628464,0.073631 -5.224243,-1.155319c-0.639519,-1.938011 -0.959549,-10.1119 1.537361,-9.650574c4.210091,0.25444 6.848381,0.766762 11.634651,-0.868462c2.900909,0 12.874237,-9.217018 15.753464,-9.217018l25.482971,0.133873c1.62883,0 4.749237,4.296524 5.533569,5.080849c3.757599,4.579926 8.7742,5.635635 15.626755,7.879517c1.752869,0.211571 7.833374,-0.856956 8.365265,0.374825c1.205215,4.01403 0.796158,8.073524 0.470673,9.608559c-0.43634,2.0578 -4.521683,-0.029541 -4.73848,2.633942c-0.176132,2.163704 -0.061935,6.042046 -0.657745,8.719414c-3.619339,3.727615 -8.004318,6.073875 -6.498932,7.580841l-0.099228,17.019722c0.464935,3.876259 1.668091,8.203499 3.076065,10.693321c3.951935,8.713211 12.114822,8.917694 13.052216,9.159241c0.430038,0.110809 37.323761,4.883148 58.140106,24.80896c1.771271,1.694809 5.665771,4.980896 10.037201,18.369995c4.224121,12.937866 7.097656,55.097702 5.681458,55.678146c-12.052002,4.939453 -28.424942,10.087799 -47.913513,3.787613c-2.431488,-0.786041 0.257492,-16.665558 -1.325668,-24.240814c-1.62355,-7.76857 0.051453,-22.862442 -16.760254,-25.850571c-7.005356,-1.245148 -29.657715,2.706039 -45.546234,6.060211c-7.565567,1.597137 -17.803131,2.594269 -23.199234,1.51506c-3.33461,-0.666931 -23.799141,-5.109497 -27.568916,-6.051941c-2.500435,-0.625107 -8.073929,-0.946609 -16.496574,1.678482c-6.251724,1.948471 -9.607872,6.713486 -9.418495,5.052536c0.138214,-1.212204 0.236572,-70.148926 -0.016251,-71.41304z" id="path3381"/>
    </g>
    <path fill="#ffffff" fill-rule="evenodd" stroke="#000000" stroke-width="2.910329" stroke-miterlimit="4" id="path3395" d="m152.161102,6.10414c-3.837128,-0.04417 -9.992569,5.50528 -17.399307,10.830551c-9.772346,6.05488 -21.399261,1.78009 -31.327316,-1.46329c-9.422173,-3.73978 -24.453812,-0.634971 -25.730492,11.150979c0.254845,6.86692 2.762016,17.55814 11.108231,17.997471c14.024849,-1.898788 28.469894,-8.151619 42.595741,-3.578129c5.63974,2.48967 6.654465,6.350159 7.124207,6.259048l27.674423,0c0.469727,0.09111 1.484467,-3.769379 7.124207,-6.259048c14.125854,-4.57349 28.570892,1.67934 42.595749,3.578129c8.346222,-0.439331 10.864044,-11.13055 11.118896,-17.997471c-1.276672,-11.78595 -16.318985,-14.890759 -25.741165,-11.150979c-9.92804,3.243381 -21.554962,7.51817 -31.327301,1.46329c-7.540237,-5.421241 -13.781708,-11.07185 -17.602249,-10.81987c-0.069122,-0.00464 -0.142929,-0.00986 -0.213623,-0.01068z"/>
    <path fill="#ffffff" fill-rule="evenodd" stroke="#000000" stroke-width="2.910329" stroke-miterlimit="4" d="m111.031723,77.827827c44.726898,6.96347 82.825104,2.54435 82.825104,2.54435" id="path3399"/>
    <path fill="#ffffff" fill-rule="evenodd" stroke="#000000" stroke-width="2.910329" stroke-miterlimit="4" id="path3401" d="m109.960419,87.278099c44.726898,6.96347 83.896408,3.347824 83.896408,3.347824"/>
   </g>
  </g>
 </g>
</svg>